PathFileType	4	(x/y/z)	S08_PSF_T05
DataRate	CameraRate	NumFrames	NumMarkers	Units	OrigDataRate	OrigDataStartFrame	OrigNumFrames
240	240	4	51	mm	240	1	418
Frame#	Time	Sternum			R.Acromium			L.Acromium			Top.Head			R.ASIS			L.ASIS			R.PSIS			L.PSIS			R.Great.Tro			L.Great.Tro			R.Iliac.Crest			L.Iliac.Crest			V.Sacral			R.Thigh.Upper.Post			R.Thigh.Lower.Ant			R.Thigh.Lower.Post			R.Thigh.Upper.Ant			R.Knee.Lat			R.Knee.Med			R.Shank.Upper.Post			R.Shank.Lower.Ant			R.Shank.Lower.Post			R.Shank.Upper.Ant			R.Ankle.Lat			R.Ankle.Med			R.Heel.Upper			R.Heel.Med			R.Heel.Lat			R.Toe.Lat			R.Toe.Med			R.Toe.Tip			L.Thigh.Upper.Post			L.Thigh.Lower.Ant			L.Thigh.Lower.Post			L.Thigh.Upper.Ant			L.Knee.Lat			L.Knee.Med			L.Shank.Upper.Post			L.Shank.Lower.Ant			L.Shank.Lower.Post			L.Shank.Upper.Ant			L.Ankle.Lat			L.Ankle.Med			L.Heel.Upper			L.Heel.Med			L.Heel.Lat			L.Toe.Lat			L.Toe.Med			L.Toe.Tip			Cervical.Spine			Back			
		X1	Y1	Z1	X2	Y2	Z2	X3	Y3	Z3	X4	Y4	Z4	X5	Y5	Z5	X6	Y6	Z6	X7	Y7	Z7	X8	Y8	Z8	X9	Y9	Z9	X10	Y10	Z10	X11	Y11	Z11	X12	Y12	Z12	X13	Y13	Z13	X14	Y14	Z14	X15	Y15	Z15	X16	Y16	Z16	X17	Y17	Z17	X18	Y18	Z18	X19	Y19	Z19	X20	Y20	Z20	X21	Y21	Z21	X22	Y22	Z22	X23	Y23	Z23	X24	Y24	Z24	X25	Y25	Z25	X26	Y26	Z26	X27	Y27	Z27	X28	Y28	Z28	X29	Y29	Z29	X30	Y30	Z30	X31	Y31	Z31	X32	Y32	Z32	X33	Y33	Z33	X34	Y34	Z34	X35	Y35	Z35	X36	Y36	Z36	X37	Y37	Z37	X38	Y38	Z38	X39	Y39	Z39	X40	Y40	Z40	X41	Y41	Z41	X42	Y42	Z42	X43	Y43	Z43	X44	Y44	Z44	X45	Y45	Z45	X46	Y46	Z46	X47	Y47	Z47	X48	Y48	Z48	X49	Y49	Z49	X50	Y50	Z50	X51	Y51	Z51	

1	0	NaN	NaN	NaN	-1492.4	1452.3	500.48	-1508.8	1476.2	163.73	-1483.8	1767.9	341.72	NaN	NaN	NaN	NaN	NaN	NaN	NaN	NaN	NaN	NaN	NaN	NaN	-1505.5	899	503.38	-1476.8	894.21	134.63	-1515.7	1072.1	477.14	-1487.3	1082.5	169.32	-1620.8	985.21	299.02	-1571.6	713.86	488.28	-1515.2	603.78	451.87	-1593.6	627.18	467.2	-1493.8	691.22	473.89	-1597.4	514.54	443.6	-1610.9	525.49	315.65	-1737.6	371.21	443.69	-1691.5	289.58	418.91	-1756.4	298.48	434.21	NaN	NaN	NaN	-1825.3	142.69	392.47	-1793.2	147.75	315.35	-1883	117.22	345.6	-1875.4	86.443	319.66	-1883.6	94.032	380.53	-1717.4	41.381	430.17	-1694.9	48.134	313.25	-1628.4	52.613	359.81	-1425.2	687.87	145.92	NaN	NaN	NaN	-1381.9	609.59	162.02	-1346.5	710.68	139.68	-1326.9	521.78	182.06	-1313.6	525.01	306.62	-1307.7	333.19	183.56	NaN	NaN	NaN	-1281	265.43	199.61	-1243	348.33	186	-1183.7	113.07	212.84	-1162.8	132	297.12	NaN	NaN	NaN	-1189.3	42.374	297	-1195.5	41.561	232.65	-1034.1	110.08	197.79	-1020.8	130.66	308.37	-973.65	173.53	258.72	-1572.3	1510.7	329.17	-1620	1226.7	341
2	0.0041667	NaN	NaN	NaN	-1487.4	1451.8	499.95	-1503.6	1475.8	163.15	-1479.2	1767.6	341.37	NaN	NaN	NaN	NaN	NaN	NaN	NaN	NaN	NaN	NaN	NaN	NaN	-1500	898.46	502.91	-1471.3	893.81	134.32	-1510	1071.6	476.77	-1481.7	1082	168.84	-1615.2	984.84	298.67	-1566.3	713.38	487.6	-1510	602.74	452.13	-1587.9	626.52	466.72	-1488.3	690.78	473.77	-1592.1	514.11	443.47	-1605.4	524.9	315.48	-1733	372	443.72	-1688.1	290.22	418.94	-1752.5	299.66	434.16	NaN	NaN	NaN	-1824	144.58	392.63	-1791.2	149.17	315.65	-1881.5	119.82	345.69	-1874.2	89.096	319.66	-1882.5	96.535	380.55	-1717.2	41.455	430.19	-1694.7	48.262	313.31	-1628.4	52.496	359.82	-1419.9	687.39	146.1	NaN	NaN	NaN	-1376.3	609.07	162.31	-1341.4	710.17	139.79	-1321.4	521.37	182.4	-1309.2	524.3	307.28	-1303.8	332.56	183.72	NaN	NaN	NaN	-1277.8	264.59	199.7	-1239	347.18	186.44	-1181.9	111.71	213.05	-1160.9	130.39	297.64	NaN	NaN	NaN	-1188.2	41.589	297.18	-1194.7	41.139	232.88	-1032.7	107.3	197.99	-1018.9	127.46	308.64	-971.32	169.92	259.04	-1567.2	1510.2	328.65	-1614.6	1226.1	340.48
3	0.0083333	NaN	NaN	NaN	-1482.2	1451.4	499.39	-1498.3	1475.3	162.54	-1474.3	1767.2	341.01	NaN	NaN	NaN	NaN	NaN	NaN	NaN	NaN	NaN	NaN	NaN	NaN	-1494.2	897.9	502.42	-1465.7	893.4	133.99	-1504	1071.1	476.38	-1475.8	1081.5	168.35	-1609.4	984.48	298.3	-1560.8	712.88	486.89	-1503.3	602.88	451.32	-1581.9	625.82	466.22	-1482.5	690.32	473.65	-1586.6	513.67	443.36	-1599.6	524.28	315.32	-1728.2	372.86	443.73	-1684.4	290.91	418.99	-1748.5	300.92	434.11	NaN	NaN	NaN	-1822.5	146.58	392.83	-1789.2	150.67	315.99	-1879.9	122.59	345.8	-1872.9	91.923	319.68	-1881.2	99.2	380.57	-1717	41.536	430.2	-1694.4	48.401	313.37	-1628.3	52.377	359.82	-1414.3	686.92	146.28	NaN	NaN	NaN	-1370.4	608.55	162.6	-1336	709.66	139.89	-1315.7	520.95	182.74	-1304.6	523.57	307.92	-1299.8	331.91	183.89	-1189.6	284.72	194.77	-1274.4	263.73	199.8	-1234.9	346	186.88	-1180	110.34	213.26	-1158.8	128.75	298.16	NaN	NaN	NaN	-1187.2	40.82	297.37	-1193.8	40.768	233.12	-1031.2	104.41	198.22	-1017	124.13	308.92	-968.89	166.15	259.37	-1562	1509.7	328.1	-1609	1225.5	339.94
4	0.0125	NaN	NaN	NaN	-1476.7	1450.9	498.8	-1492.7	1474.9	161.91	-1469.3	1766.9	340.63	NaN	NaN	NaN	NaN	NaN	NaN	NaN	NaN	NaN	NaN	NaN	NaN	-1488.3	897.33	501.91	-1459.8	893	133.64	-1497.9	1070.6	475.99	-1469.8	1081	167.85	-1603.4	984.13	297.93	-1555.1	712.38	486.14	-1498.8	602.32	451.68	-1575.6	625.09	465.72	-1476.6	689.82	473.52	-1580.8	513.22	443.27	-1593.5	523.62	315.17	-1723.3	373.78	443.72	-1680.6	291.64	419.08	-1744.2	302.26	434.08	NaN	NaN	NaN	-1820.9	148.67	393.06	-1786.9	152.23	316.37	-1878.1	125.52	345.92	-1871.6	94.922	319.7	-1879.9	102.03	380.61	-1716.8	41.627	430.22	-1694.1	48.554	313.44	-1628.3	52.259	359.82	-1408.5	686.46	146.45	NaN	NaN	NaN	-1364.4	608.05	162.89	-1330.5	709.16	139.99	-1309.8	520.52	183.07	-1299.9	522.85	308.52	-1295.7	331.27	184.05	-1187.7	282.61	196.15	-1270.9	262.88	199.9	-1230.7	344.82	187.31	-1178.1	108.96	213.48	-1156.7	127.11	298.7	NaN	NaN	NaN	-1186.1	40.083	297.57	-1192.9	40.464	233.35	-1029.6	101.42	198.47	-1015	120.69	309.2	-966.38	162.25	259.71	-1556.6	1509.2	327.51	-1603.1	1224.9	339.38
